<?xml version="1.0" ?><!DOCTYPE svg  PUBLIC '-//W3C//DTD SVG 1.1//EN'  'http://www.w3.org/Graphics/SVG/1.1/DTD/svg11.dtd'><svg enable-background="new 0 0 24 24" height="24px" id="Layer_1" version="1.1" viewBox="0 0 24 24" width="24px" xml:space="preserve" xmlns="http://www.w3.org/2000/svg" xmlns:xlink="http://www.w3.org/1999/xlink"><g><path d="M19.7,0.5H4.3c-2.1,0-3.8,1.7-3.8,3.8v15.4c0,2.1,1.7,3.8,3.8,3.8h15.4c2.1,0,3.8-1.7,3.8-3.8V4.3   C23.5,2.2,21.8,0.5,19.7,0.5z M19.1,15.4c0,0.2-0.1,0.4-0.3,0.4c-0.2,0.1-0.4,0.1-0.5-0.1l-1.8-1.4v0.3c0,1.1-0.9,1.9-1.9,1.9H6.8   c-1.1,0-1.9-0.9-1.9-1.9V9.3c0-1.1,0.9-1.9,1.9-1.9h7.8c1.1,0,1.9,0.9,1.9,1.9v0.3l1.8-1.4c0.1-0.1,0.3-0.1,0.5,0   c0.2,0.1,0.3,0.2,0.3,0.4V15.4z"/></g></svg>